<svg data-v-423bf9ae="" xmlns="http://www.w3.org/2000/svg" viewBox="0 0 436 90" class="iconLeft"><!----><!----><!----><g data-v-423bf9ae="" id="5c9bc355-42a8-409d-9bc2-b1b43a678145" fill="#fff" transform="matrix(4.3424906730651855,0,0,4.3424906730651855,105.08299255371094,13.480128288269043)"><path d="M3.08 0.95L2.90 1.16L2.90 1.16Q3.51 1.16 4.14 1.20L4.14 1.20L4.14 1.20Q4.76 1.25 5.18 1.22L5.18 1.22L5.18 1.22Q5.52 1.19 5.84 1.18L5.84 1.18L5.84 1.18Q6.17 1.18 6.52 1.15L6.52 1.15L6.52 1.15Q6.68 1.15 6.83 1.13L6.83 1.13L6.83 1.13Q6.97 1.12 7.13 1.15L7.13 1.15L7.13 1.15Q7.14 1.15 7.15 1.15L7.15 1.15L7.15 1.15Q7.15 1.16 7.17 1.16L7.17 1.16L7.20 1.16L7.25 1.16L7.24 1.18L7.24 1.18Q7.35 1.25 7.22 1.44L7.22 1.44L7.22 1.44Q7.29 1.44 7.35 1.45L7.35 1.45L7.35 1.45Q7.41 1.46 7.48 1.47L7.48 1.47L7.48 1.47Q7.64 1.46 7.90 1.45L7.90 1.45L7.90 1.45Q8.16 1.44 8.41 1.46L8.41 1.46L8.41 1.46Q8.67 1.47 8.86 1.51L8.86 1.51L8.86 1.51Q9.04 1.55 9.09 1.65L9.09 1.65L9.09 1.65Q9.11 1.81 9.04 1.91L9.04 1.91L9.04 1.91Q8.96 2.02 8.88 2.13L8.88 2.13L8.88 2.13Q8.51 2.58 8.18 2.65L8.18 2.65L8.18 2.65Q7.85 2.73 7.48 2.63L7.48 2.63L7.48 2.63Q7.28 2.79 7.11 2.86L7.11 2.86L7.04 2.86L7.04 2.86Q7.06 2.84 7.08 2.79L7.08 2.79L7.03 2.86L7.03 2.86Q6.90 2.76 6.70 2.71L6.70 2.71L6.70 2.71Q6.50 2.66 6.27 2.64L6.27 2.64L6.27 2.64Q6.03 2.62 5.80 2.63L5.80 2.63L5.80 2.63Q5.56 2.63 5.36 2.63L5.36 2.63L5.36 2.63Q5.33 2.83 5.29 3.02L5.29 3.02L5.29 3.02Q5.24 3.21 5.21 3.40L5.21 3.40L5.21 3.40Q5.19 3.43 5.19 3.47L5.19 3.47L5.19 3.47Q5.19 3.50 5.18 3.53L5.18 3.53L5.18 3.53Q5.17 4.03 5.18 4.59L5.18 4.59L5.18 4.59Q5.19 5.15 5.23 5.71L5.23 5.71L5.23 5.71Q5.26 6.27 5.31 6.79L5.31 6.79L5.31 6.79Q5.35 7.31 5.39 7.71L5.39 7.71L5.39 7.71Q5.46 8.27 5.57 8.81L5.57 8.81L5.57 8.81Q5.68 9.35 5.71 9.93L5.71 9.93L5.71 9.93Q5.68 10.04 5.54 10.24L5.54 10.24L5.54 10.24Q5.39 10.44 5.21 10.60L5.21 10.60L5.21 10.60Q5.21 10.63 5.21 10.66L5.21 10.66L5.21 10.66Q5.22 10.70 5.22 10.72L5.22 10.72L5.22 10.72Q5.21 10.81 5.10 10.96L5.10 10.96L5.10 10.96Q4.98 11.12 4.85 11.26L4.85 11.26L4.85 11.26Q4.72 11.41 4.57 11.50L4.57 11.50L4.57 11.50Q4.42 11.59 4.33 11.54L4.33 11.54L4.33 11.54Q4.31 11.55 4.31 11.55L4.31 11.55L4.31 11.55Q4.31 11.56 4.30 11.58L4.30 11.58L4.30 11.58Q4.30 11.55 4.29 11.54L4.29 11.54L4.29 11.54Q4.28 11.52 4.28 11.51L4.28 11.51L4.28 11.51Q4.06 10.57 3.98 9.58L3.98 9.58L3.98 9.58Q3.89 8.58 3.88 7.57L3.88 7.57L3.88 7.57Q3.86 6.55 3.89 5.54L3.89 5.54L3.89 5.54Q3.92 4.54 3.92 3.58L3.92 3.58L3.92 3.58Q3.92 3.42 4.08 3.18L4.08 3.18L4.08 3.18Q4.24 2.95 4.44 2.77L4.44 2.77L4.44 2.77Q4.45 2.74 4.47 2.71L4.47 2.71L4.47 2.71Q4.48 2.67 4.49 2.65L4.49 2.65L4.49 2.65Q4.45 2.65 4.40 2.65L4.40 2.65L4.40 2.65Q4.35 2.66 4.31 2.66L4.31 2.66L4.31 2.66Q3.91 2.73 3.54 2.80L3.54 2.80L3.54 2.80Q3.18 2.87 2.88 2.91L2.88 2.91L2.88 2.91Q2.52 2.97 2.14 2.97L2.14 2.97L2.14 2.97Q1.78 2.97 1.41 2.98L1.41 2.98L1.36 2.98L1.36 2.98Q1.16 3.05 0.97 3.12L0.97 3.12L0.97 3.12Q0.77 3.19 0.63 3.16L0.63 3.16L0.59 3.12L0.59 3.08L0.59 3.08Q0.60 2.91 0.69 2.77L0.69 2.77L0.69 2.77Q0.78 2.63 0.92 2.51L0.92 2.51L0.92 2.51Q0.77 2.55 0.63 2.59L0.63 2.59L0.63 2.59Q0.49 2.63 0.34 2.65L0.34 2.65L0.34 2.65Q0.13 2.66 0.18 2.54L0.18 2.54L0.18 2.54Q0.24 2.42 0.39 2.25L0.39 2.25L0.39 2.25Q0.53 2.09 0.71 1.94L0.71 1.94L0.71 1.94Q0.90 1.79 0.94 1.76L0.94 1.76L0.94 1.76Q0.97 1.75 1.01 1.74L1.01 1.74L1.01 1.74Q1.05 1.74 1.12 1.71L1.12 1.71L1.12 1.71Q1.20 1.62 1.28 1.55L1.28 1.55L1.28 1.55Q1.36 1.48 1.39 1.46L1.39 1.46L1.39 1.46Q1.46 1.40 1.55 1.36L1.55 1.36L1.55 1.36Q1.65 1.32 1.76 1.29L1.76 1.29L1.76 1.29Q1.86 1.23 1.95 1.18L1.95 1.18L1.95 1.18Q2.04 1.12 2.16 1.06L2.16 1.06L2.16 1.06Q2.39 0.95 2.60 0.95L2.60 0.95L2.60 0.95Q2.83 0.95 3.08 0.95L3.08 0.95ZM11.33 4.77L11.28 5.25L11.28 5.25Q11.38 5.12 11.47 5.01L11.47 5.01L11.47 5.01Q11.56 4.90 11.68 4.80L11.68 4.80L11.68 4.80Q11.72 4.77 11.68 4.87L11.68 4.87L11.68 4.87Q11.63 4.96 11.63 5.01L11.63 5.01L11.63 5.01Q11.59 5.22 11.59 5.42L11.59 5.42L11.59 5.42Q11.58 5.54 11.57 5.66L11.57 5.66L11.57 5.66Q11.56 5.78 11.56 5.89L11.56 5.89L11.56 5.89Q11.84 5.59 12.18 5.33L12.18 5.33L12.18 5.33Q12.52 5.07 12.88 4.91L12.88 4.91L12.88 4.91Q13.24 4.76 13.63 4.74L13.63 4.74L13.63 4.74Q14.01 4.72 14.38 4.90L14.38 4.90L14.38 4.90Q14.46 4.96 14.52 5.01L14.52 5.01L14.52 5.01Q14.70 5.05 14.86 5.14L14.86 5.14L14.86 5.14Q15.02 5.24 15.13 5.40L15.13 5.40L15.13 5.40Q15.29 5.64 15.34 5.92L15.34 5.92L15.34 5.92Q15.39 6.19 15.43 6.47L15.43 6.47L15.43 6.47Q15.34 6.47 15.27 6.47L15.27 6.47L15.27 6.47Q15.19 6.48 15.11 6.47L15.11 6.47L14.78 7.20L14.87 7.14L14.87 7.14Q14.78 7.21 14.68 7.26L14.68 7.26L14.68 7.26Q14.57 7.31 14.50 7.24L14.50 7.24L14.50 7.24Q14.48 7.17 14.47 7.08L14.47 7.08L14.47 7.08Q14.46 7 14.45 6.93L14.45 6.93L14.45 6.93Q14.41 6.94 14.32 6.94L14.32 6.94L14.32 6.94Q14.24 6.92 14.15 6.85L14.15 6.85L14.15 6.85Q14.11 6.85 14.08 6.80L14.08 6.80L14.08 6.80Q14.08 6.80 14.06 6.75L14.06 6.75L14.06 6.75Q13.99 6.68 13.92 6.62L13.92 6.62L13.92 6.62Q13.85 6.55 13.73 6.50L13.73 6.50L13.73 6.50Q13.51 6.41 13.22 6.40L13.22 6.40L13.22 6.40Q12.92 6.38 12.62 6.45L12.62 6.45L12.62 6.45Q12.32 6.51 12.05 6.64L12.05 6.64L12.05 6.64Q11.77 6.76 11.58 6.94L11.58 6.94L11.58 6.94Q11.58 7.35 11.66 7.88L11.66 7.88L11.66 7.88Q11.76 8.23 11.87 8.57L11.87 8.57L11.87 8.57Q11.98 8.90 12.10 9.23L12.10 9.23L11.96 9.37L11.96 9.37Q12.03 9.67 12.10 9.93L12.10 9.93L12.10 9.93Q12.18 10.19 12.25 10.39L12.25 10.39L12.25 10.39Q12.22 10.42 12.21 10.43L12.21 10.43L12.21 10.43Q12.21 10.44 12.18 10.46L12.18 10.46L12.18 10.46Q12.21 10.51 12.24 10.53L12.24 10.53L12.24 10.54L12.32 10.63L12.32 10.63Q12.35 10.60 12.38 10.58L12.38 10.58L12.38 10.58Q12.36 10.61 12.36 10.64L12.36 10.64L12.36 10.64Q12.36 10.68 12.35 10.71L12.35 10.71L12.35 10.71Q12.33 10.79 12.21 10.96L12.21 10.96L12.21 10.96Q12.10 11.13 11.95 11.28L11.95 11.28L11.95 11.28Q11.80 11.42 11.66 11.51L11.66 11.51L11.66 11.51Q11.51 11.59 11.42 11.51L11.42 11.51L11.42 11.51Q11.28 11.37 11.19 11.17L11.19 11.17L11.19 11.17Q11.09 10.98 11.00 10.74L11.00 10.74L11.00 10.74Q10.85 10.93 10.67 11.10L10.67 11.10L10.67 11.10Q10.49 11.26 10.35 11.21L10.35 11.21L10.35 11.21Q10.33 11.24 10.32 11.25L10.32 11.25L10.32 11.25Q10.30 11.26 10.29 11.28L10.29 11.28L10.29 11.28Q10.29 11.26 10.28 11.23L10.28 11.23L10.28 11.23Q10.28 11.20 10.28 11.17L10.28 11.17L10.28 11.17Q10.14 10.93 10.11 10.63L10.11 10.63L10.11 10.63Q10.08 10.32 10.05 10.05L10.05 10.05L10.05 10.05Q10.01 9.73 9.98 9.41L9.98 9.41L9.98 9.41Q9.95 9.10 9.94 8.78L9.94 8.78L9.94 8.78Q9.81 8.15 9.72 7.52L9.72 7.52L9.72 7.52Q9.62 6.89 9.59 6.23L9.59 6.23L9.95 5.92L9.95 5.71L9.95 5.71Q9.95 5.71 9.98 5.70L9.98 5.70L9.98 5.70Q10.04 5.57 10.16 5.41L10.16 5.41L10.16 5.41Q10.29 5.25 10.43 5.12L10.43 5.12L10.43 5.12Q10.57 5.00 10.70 4.94L10.70 4.94L10.70 4.94Q10.82 4.89 10.86 4.96L10.86 4.96L10.88 4.94L10.88 5.21L10.88 5.21Q10.96 5.08 11.08 4.98L11.08 4.98L11.08 4.98Q11.20 4.87 11.33 4.77L11.33 4.77ZM16.60 6.82L16.60 6.82L16.60 6.82Q16.80 6.48 17.06 6.17L17.06 6.17L17.06 6.17Q17.32 5.87 17.62 5.62L17.62 5.62L17.62 5.62Q17.92 5.38 18.26 5.21L18.26 5.21L18.26 5.21Q18.59 5.05 18.93 5.00L18.93 5.00L18.93 5.00Q19.32 4.73 19.76 4.55L19.76 4.55L19.76 4.55Q20.20 4.37 20.51 4.52L20.51 4.52L20.51 4.52Q20.90 4.75 21.13 5.05L21.13 5.05L21.13 5.05Q21.28 5.10 21.41 5.18L21.41 5.18L21.41 5.18Q21.45 5.22 21.49 5.26L21.49 5.26L21.49 5.26Q21.53 5.31 21.57 5.36L21.57 5.36L21.57 5.36Q21.73 5.22 21.85 5.17L21.85 5.17L21.85 5.17Q21.98 5.11 22.01 5.25L22.01 5.25L22.01 5.25Q22.06 5.66 22.08 6.05L22.08 6.05L22.08 6.05Q22.09 6.45 22.08 6.86L22.08 6.86L22.08 6.86Q22.09 6.92 22.10 6.96L22.10 6.96L22.10 6.96Q22.11 7 22.11 7.04L22.11 7.04L22.11 7.04Q22.11 7.31 22.14 7.60L22.14 7.60L22.14 7.60Q22.18 7.90 22.05 8.12L22.05 8.12L22.05 8.12Q22.05 8.19 22.04 8.27L22.04 8.27L22.04 8.27Q22.04 8.34 22.04 8.41L22.04 8.41L22.04 8.41Q22.11 8.95 22.12 9.39L22.12 9.39L22.12 9.39Q22.15 9.53 22.17 9.67L22.17 9.67L22.17 9.67Q22.19 9.80 22.20 9.93L22.20 9.93L22.20 9.93Q22.22 10.01 22.27 10.08L22.27 10.08L22.22 10.14L22.22 10.14Q22.22 10.39 22.16 10.62L22.16 10.62L22.16 10.62Q22.11 10.85 21.94 11.06L21.94 11.06L21.94 11.06Q21.90 11.10 21.81 11.19L21.81 11.19L21.81 11.19Q21.71 11.28 21.61 11.37L21.61 11.37L21.61 11.37Q21.50 11.45 21.41 11.49L21.41 11.49L21.41 11.49Q21.31 11.52 21.24 11.45L21.24 11.45L21.24 11.45Q21.22 11.44 21.22 11.42L21.22 11.42L21.22 11.42Q21.22 11.42 21.21 11.41L21.21 11.41L21.21 11.41Q21.20 11.41 21.18 11.42L21.18 11.42L21.14 11.42L21.14 11.42Q21.04 11.42 21.01 11.40L21.01 11.40L21.01 11.40Q20.94 11.19 20.94 10.91L20.94 10.91L20.94 10.91Q20.94 10.64 20.92 10.44L20.92 10.44L20.92 10.44Q20.89 10.23 20.87 10.02L20.87 10.02L20.87 10.02Q20.85 9.81 20.82 9.59L20.82 9.59L20.82 9.59Q20.45 9.83 20.02 10.00L20.02 10.00L20.02 10.00Q19.59 10.16 19.10 10.30L19.10 10.30L19.10 10.30Q19.01 10.33 18.94 10.35L18.94 10.35L18.94 10.35Q18.86 10.37 18.77 10.40L18.77 10.40L18.77 10.40Q18.56 10.51 18.35 10.61L18.35 10.61L18.35 10.61Q18.13 10.70 17.91 10.74L17.91 10.74L17.91 10.74Q17.70 10.78 17.49 10.75L17.49 10.75L17.49 10.75Q17.28 10.72 17.07 10.57L17.07 10.57L17.07 10.57Q16.69 10.30 16.38 9.93L16.38 9.93L16.38 9.93Q16.07 9.56 15.92 9.13L15.92 9.13L15.92 9.13Q15.86 8.99 15.88 8.82L15.88 8.82L15.88 8.82Q15.89 8.65 15.95 8.47L15.95 8.47L15.95 8.47Q15.86 8.13 15.92 7.92L15.92 7.92L15.92 7.92Q16.00 7.62 16.18 7.34L16.18 7.34L16.18 7.34Q16.37 7.07 16.60 6.82ZM18.13 9.21L18.13 9.21L18.13 9.21Q18.30 9.24 18.62 9.21L18.62 9.21L18.62 9.21Q18.94 9.17 19.32 9.07L19.32 9.07L19.32 9.07Q19.70 8.97 20.08 8.82L20.08 8.82L20.08 8.82Q20.45 8.67 20.72 8.47L20.72 8.47L20.72 8.47Q20.69 8.15 20.67 7.81L20.67 7.81L20.67 7.81Q20.65 7.48 20.62 7.14L20.62 7.14L20.62 7.14Q20.61 7.03 20.61 6.92L20.61 6.92L20.61 6.92Q20.61 6.79 20.59 6.68L20.59 6.68L20.54 6.72L20.54 6.72Q20.52 6.65 20.52 6.57L20.52 6.57L20.52 6.57Q20.52 6.48 20.52 6.41L20.52 6.41L20.52 6.41Q20.50 6.34 20.46 6.28L20.46 6.28L20.46 6.28Q20.43 6.22 20.40 6.15L20.40 6.15L20.27 6.26L20.27 6.26Q20.23 6.19 20.23 6.10L20.23 6.10L20.23 6.10Q20.23 6.01 20.20 5.94L20.20 5.94L20.20 5.94Q19.95 5.85 19.73 5.80L19.73 5.80L19.73 5.80Q19.50 5.75 19.29 5.74L19.29 5.74L19.29 5.74Q19.10 5.74 18.91 5.77L18.91 5.77L18.91 5.77Q18.72 5.80 18.52 5.84L18.52 5.84L18.52 5.84Q17.96 6.06 17.42 6.82L17.42 6.82L17.42 6.82Q17.22 7.06 17.04 7.39L17.04 7.39L17.04 7.39Q17.01 7.81 17.12 8.22L17.12 8.22L17.12 8.22Q17.21 8.34 17.31 8.51L17.31 8.51L17.31 8.51Q17.42 8.68 17.54 8.83L17.54 8.83L17.54 8.83Q17.67 8.97 17.82 9.09L17.82 9.09L17.82 9.09Q17.96 9.20 18.13 9.21ZM22.62 5.43L22.62 5.43L22.62 5.43Q22.67 5.33 22.75 5.20L22.75 5.20L22.75 5.20Q22.83 5.07 22.95 4.95L22.95 4.95L22.95 4.95Q23.06 4.83 23.19 4.74L23.19 4.74L23.19 4.74Q23.32 4.65 23.45 4.65L23.45 4.65L23.45 4.65Q23.48 4.62 23.49 4.62L23.49 4.62L23.49 4.62Q23.62 4.49 23.77 4.41L23.77 4.41L23.77 4.41Q23.91 4.33 24.05 4.35L24.05 4.35L24.05 4.35Q24.04 4.33 24.04 4.31L24.04 4.31L24.04 4.31Q24.04 4.28 24.05 4.30L24.05 4.30L24.05 4.30Q24.05 4.34 24.07 4.35L24.07 4.35L24.07 4.35Q24.09 4.48 24.13 4.61L24.13 4.61L24.13 4.61Q24.16 4.75 24.21 4.89L24.21 4.89L24.21 4.89Q24.44 5.32 24.60 5.80L24.60 5.80L24.60 5.80Q24.75 6.29 24.86 6.78L24.86 6.78L24.86 6.78Q24.88 6.79 24.88 6.80L24.88 6.80L24.88 6.80Q24.88 6.80 24.89 6.82L24.89 6.82L24.89 6.82Q25.19 7.29 25.49 7.80L25.49 7.80L25.49 7.80Q25.80 8.30 26.04 8.78L26.04 8.78L26.04 8.78Q26.11 8.89 26.16 9.00L26.16 9.00L26.16 9.00Q26.21 9.11 26.28 9.23L26.28 9.23L26.28 9.23Q26.43 8.64 26.61 8.06L26.61 8.06L26.61 8.06Q26.80 7.48 27.03 6.93L27.03 6.93L27.03 6.90L27.03 6.90Q27.06 6.83 27.15 6.71L27.15 6.71L27.15 6.71Q27.24 6.59 27.36 6.48L27.36 6.48L27.36 6.48Q27.52 5.89 27.75 5.35L27.75 5.35L27.75 5.35Q27.97 4.82 28.31 4.48L28.31 4.48L28.31 4.48Q28.42 4.37 28.58 4.23L28.58 4.23L28.58 4.23Q28.74 4.10 28.92 4.13L28.92 4.13L28.92 4.13Q29.02 4.21 28.99 4.43L28.99 4.43L28.99 4.43Q28.97 4.65 28.88 4.75L28.88 4.75L28.88 4.75Q28.85 4.84 28.84 4.94L28.84 4.94L28.84 4.94Q28.83 5.04 28.80 5.14L28.80 5.14L28.80 5.14Q28.73 5.42 28.64 5.67L28.64 5.67L28.64 5.67Q28.56 5.92 28.45 6.19L28.45 6.19L28.45 6.19Q28.27 6.65 28.07 7.11L28.07 7.11L28.07 7.11Q27.87 7.56 27.68 8.02L27.68 8.02L27.68 8.02Q27.50 8.47 27.34 8.95L27.34 8.95L27.34 8.95Q27.19 9.44 26.92 9.83L26.92 9.83L26.92 9.83Q26.89 9.86 26.77 9.99L26.77 9.99L26.77 9.99Q26.66 10.12 26.52 10.25L26.52 10.25L26.52 10.25Q26.38 10.37 26.26 10.43L26.26 10.43L26.26 10.43Q26.14 10.49 26.11 10.39L26.11 10.39L26.11 10.39Q26.07 10.43 26.00 10.46L26.00 10.46L26.00 10.46Q25.84 10.65 25.66 10.78L25.66 10.78L25.66 10.78Q25.48 10.91 25.37 10.79L25.37 10.79L25.37 10.79Q25.20 10.63 25.03 10.39L25.03 10.39L25.03 10.39Q25.03 10.37 25.02 10.37L25.02 10.37L25.02 10.37Q25.02 10.37 25.02 10.36L25.02 10.36L25.02 10.36Q24.70 9.95 24.50 9.48L24.50 9.48L24.50 9.48Q24.30 9.00 24.18 8.51L24.18 8.51L24.18 8.51Q24.12 8.39 24.08 8.23L24.08 8.23L24.08 8.23Q23.93 7.94 23.77 7.64L23.77 7.64L23.77 7.64Q23.60 7.34 23.49 7.01L23.49 7.01L23.49 7.01Q23.46 6.97 23.44 6.94L23.44 6.94L23.44 6.94Q23.42 6.90 23.41 6.87L23.41 6.87L23.41 6.87Q23.31 6.72 23.16 6.55L23.16 6.55L23.16 6.55Q23.02 6.38 22.89 6.20L22.89 6.20L22.89 6.20Q22.76 6.01 22.69 5.81L22.69 5.81L22.69 5.81Q22.61 5.61 22.62 5.43ZM33.46 4.09L33.46 4.09L33.46 4.09Q33.54 4.09 33.78 4.12L33.78 4.12L33.78 4.12Q34.02 4.14 34.29 4.21L34.29 4.21L34.29 4.21Q34.57 4.28 34.80 4.41L34.80 4.41L34.80 4.41Q35.03 4.54 35.07 4.72L35.07 4.72L35.07 4.72Q35.21 4.87 35.31 5.08L35.31 5.08L35.31 5.08Q35.60 5.70 35.43 6.17L35.43 6.17L35.43 6.17Q35.50 6.19 35.57 6.20L35.57 6.20L35.57 6.20Q35.63 6.22 35.69 6.24L35.69 6.24L35.69 6.24Q35.71 6.37 35.65 6.50L35.65 6.50L35.65 6.50Q35.59 6.62 35.48 6.73L35.48 6.73L35.48 6.73Q35.38 6.85 35.25 6.94L35.25 6.94L35.25 6.94Q35.13 7.03 35.04 7.08L35.04 7.08L35.04 7.08Q34.80 7.22 34.47 7.25L34.47 7.25L34.47 7.25Q34.13 7.27 33.81 7.27L33.81 7.27L33.81 7.27Q33.22 7.34 32.67 7.46L32.67 7.46L32.67 7.46Q32.12 7.59 31.56 7.73L31.56 7.73L31.56 7.73Q31.29 7.80 31.03 7.88L31.03 7.88L31.03 7.88Q30.77 7.97 30.51 8.04L30.51 8.04L30.51 8.04Q30.76 8.69 31.30 9.13L31.30 9.13L31.30 9.13Q31.79 9.41 32.41 9.48L32.41 9.48L32.41 9.48Q33.03 9.55 33.60 9.51L33.60 9.51L34.06 9.38L34.06 9.38Q34.09 9.37 34.04 9.38L34.04 9.38L34.04 9.38Q33.99 9.39 33.92 9.41L33.92 9.41L33.92 9.41Q33.85 9.42 33.80 9.44L33.80 9.44L33.80 9.44Q33.75 9.45 33.80 9.44L33.80 9.44L33.80 9.44Q34.17 9.34 34.57 9.25L34.57 9.25L34.57 9.25Q34.97 9.17 35.35 9.03L35.35 9.03L35.35 9.03Q35.46 8.95 35.58 8.86L35.58 8.86L35.58 8.86Q35.70 8.76 35.85 8.71L35.85 8.71L35.85 8.71Q35.90 8.69 35.95 8.69L35.95 8.69L35.95 8.69Q35.99 8.68 36.04 8.69L36.04 8.69L36.04 8.69Q36.06 8.81 36.06 8.86L36.06 8.86L36.06 8.86Q35.99 9.11 35.80 9.30L35.80 9.30L35.80 9.30Q35.60 9.49 35.41 9.63L35.41 9.63L35.41 9.63Q35.14 9.77 34.86 9.88L34.86 9.88L34.86 9.88Q34.85 9.90 34.83 9.90L34.83 9.90L34.83 9.90Q34.51 10.09 34.13 10.20L34.13 10.20L34.13 10.20Q33.75 10.30 33.39 10.36L33.39 10.36L33.39 10.36Q33.05 10.42 32.66 10.44L32.66 10.44L32.66 10.44Q31.92 10.57 31.35 10.48L31.35 10.48L31.35 10.48Q30.79 10.39 30.37 10.01L30.37 10.01L30.37 10.01Q30.09 9.84 29.88 9.60L29.88 9.60L29.88 9.60Q29.68 9.35 29.58 9.02L29.58 9.02L29.58 9.02Q29.54 8.92 29.54 8.83L29.54 8.83L29.54 8.83Q29.54 8.74 29.55 8.64L29.55 8.64L29.55 8.64Q29.46 8.37 29.37 8.02L29.37 8.02L29.37 8.02Q29.30 7.77 29.38 7.50L29.38 7.50L29.38 7.50Q29.46 7.24 29.50 6.96L29.50 6.96L29.50 6.96Q29.54 6.66 29.72 6.37L29.72 6.37L29.72 6.37Q29.89 6.08 30.09 5.82L30.09 5.82L30.09 5.82Q30.44 5.36 30.80 5.05L30.80 5.05L30.80 5.05Q31.16 4.75 31.56 4.55L31.56 4.55L31.56 4.55Q31.96 4.35 32.43 4.25L32.43 4.25L32.43 4.25Q32.90 4.14 33.46 4.09ZM30.46 6.82L30.46 6.82L30.46 6.82Q30.46 6.92 30.48 7L30.48 7L30.48 7Q30.49 7.08 30.52 7.18L30.52 7.18L30.52 7.18Q30.76 7.07 31.01 6.99L31.01 6.99L31.01 6.99Q31.26 6.90 31.53 6.83L31.53 6.83L31.53 6.83Q32.06 6.66 32.60 6.54L32.60 6.54L32.60 6.54Q33.14 6.43 33.50 6.33L33.50 6.33L33.50 6.33Q33.74 6.26 33.98 6.20L33.98 6.20L33.98 6.20Q34.22 6.15 34.45 6.10L34.45 6.10L34.45 6.10Q34.44 6.06 34.43 6.03L34.43 6.03L34.43 6.03Q34.41 5.99 34.40 5.95L34.40 5.95L34.40 5.95Q34.23 5.59 33.92 5.40L33.92 5.40L33.92 5.40Q33.61 5.21 33.21 5.18L33.21 5.18L33.21 5.18Q32.79 5.14 32.38 5.26L32.38 5.26L32.38 5.26Q31.96 5.38 31.60 5.61L31.60 5.61L31.60 5.61Q31.23 5.84 30.94 6.15L30.94 6.15L30.94 6.15Q30.65 6.45 30.46 6.82ZM30.65 5.82L30.65 5.82L30.65 5.82Q30.83 5.66 31.01 5.51L31.01 5.51L31.01 5.51Q31.19 5.36 31.39 5.22L31.39 5.22L31.39 5.22Q30.94 5.40 30.72 5.73L30.72 5.73L30.72 5.73Q30.69 5.75 30.68 5.77L30.68 5.77L30.68 5.77Q30.67 5.80 30.65 5.82ZM36.83 7.41L36.83 7.41L36.83 7.41Q36.79 6.65 36.81 5.92L36.81 5.92L36.81 5.92Q36.82 5.18 36.88 4.42L36.88 4.42L36.88 4.42Q36.88 4.31 36.88 4.19L36.88 4.19L36.88 4.19Q36.88 4.06 36.89 3.95L36.89 3.95L36.89 3.95Q36.92 3.46 36.91 2.90L36.91 2.90L36.91 2.90Q36.90 2.34 37.00 1.85L37.00 1.85L37.00 1.85Q37.03 1.78 37.17 1.60L37.17 1.60L37.17 1.60Q37.31 1.43 37.46 1.27L37.46 1.27L37.46 1.27Q37.49 1.20 37.52 1.14L37.52 1.14L37.52 1.14Q37.55 1.08 37.59 1.01L37.59 1.01L37.59 1.01Q37.73 0.81 37.92 0.62L37.92 0.62L37.92 0.62Q38.11 0.42 38.36 0.35L38.36 0.35L38.43 0.35L38.43 0.35Q38.50 0.38 38.51 0.43L38.51 0.43L38.51 0.43Q38.57 0.77 38.51 1.13L38.51 1.13L38.51 1.13Q38.44 1.50 38.39 1.82L38.39 1.82L38.39 1.82Q38.29 2.45 38.18 3.07L38.18 3.07L38.18 3.07Q38.07 3.68 37.97 4.31L37.97 4.31L37.97 4.31Q37.95 5.57 38.07 6.80L38.07 6.80L38.07 6.80Q38.19 8.04 38.42 9.25L38.42 9.25L38.49 9.20L38.49 9.20Q38.49 9.25 38.48 9.30L38.48 9.30L38.48 9.30Q38.47 9.34 38.47 9.39L38.47 9.39L38.47 9.39Q38.44 9.48 38.35 9.63L38.35 9.63L38.35 9.63Q38.25 9.77 38.11 9.93L38.11 9.93L38.11 9.93Q38.12 10.00 38.12 10.08L38.12 10.08L38.12 10.08Q38.12 10.15 38.12 10.22L38.12 10.22L38.12 10.22Q38.12 10.28 38.14 10.30L38.14 10.30L38.14 10.30Q38.11 10.32 38.10 10.33L38.10 10.33L38.10 10.33Q38.09 10.35 38.07 10.36L38.07 10.36L38.07 10.36Q38.01 10.46 37.90 10.61L37.90 10.61L37.90 10.61Q37.79 10.75 37.66 10.88L37.66 10.88L37.66 10.88Q37.53 11.00 37.41 11.07L37.41 11.07L37.41 11.07Q37.30 11.13 37.21 11.06L37.21 11.06L37.21 11.06Q37.20 11.06 37.20 11.07L37.20 11.07L37.20 11.05L37.20 11.05Q37.13 10.63 37.07 10.21L37.07 10.21L37.07 10.21Q37.02 9.79 36.97 9.37L36.97 9.37L36.97 9.37Q36.96 9.30 36.95 9.23L36.95 9.23L36.95 9.23Q36.95 9.17 36.93 9.10L36.93 9.10L36.93 9.10Q36.86 8.68 36.84 8.26L36.84 8.26L36.84 8.26Q36.82 7.84 36.83 7.41ZM41.41 1.20L41.41 1.37L41.41 1.37Q41.51 1.64 41.59 1.90L41.59 1.90L41.59 1.90Q41.68 2.16 41.78 2.39L41.78 2.39L41.78 2.39Q41.93 2.83 42.04 3.13L42.04 3.13L42.04 3.13Q42.15 3.43 42.29 3.85L42.29 3.85L42.29 3.85Q42.59 4.73 42.86 5.61L42.86 5.61L42.86 5.61Q43.13 6.48 43.48 7.35L43.48 7.35L43.48 7.35Q43.67 7.80 43.90 8.29L43.90 8.29L43.90 8.29Q43.97 7.99 44.04 7.78L44.04 7.78L44.04 7.78Q44.10 7.57 44.13 7.50L44.13 7.50L44.13 7.50Q44.46 6.36 44.93 5.25L44.93 5.25L44.93 5.25Q45.39 4.14 45.92 3.05L45.92 3.05L45.92 3.05Q46.12 2.63 46.33 2.21L46.33 2.21L46.33 2.21Q46.55 1.79 46.91 1.47L46.91 1.47L46.91 1.47Q47.01 1.39 47.12 1.31L47.12 1.31L47.12 1.31Q47.24 1.23 47.38 1.26L47.38 1.26L47.38 1.26Q47.46 1.34 47.46 1.53L47.46 1.53L47.46 1.53Q47.74 1.25 47.99 1.15L47.99 1.15L47.99 1.15Q48.13 1.12 48.16 1.15L48.16 1.15L48.16 1.15Q48.19 1.18 48.16 1.32L48.16 1.32L48.16 1.32Q48.01 1.76 47.74 2.13L47.74 2.13L47.74 2.13Q47.47 2.49 47.19 2.86L47.19 2.86L47.19 2.86Q47.17 2.93 47.15 2.99L47.15 2.99L47.15 2.99Q47.14 3.05 47.12 3.08L47.12 3.08L47.12 3.08Q46.87 3.88 46.55 4.64L46.55 4.64L46.55 4.64Q46.23 5.40 45.91 6.17L45.91 6.17L46.49 5.99L46.49 5.99Q46.19 6.40 45.86 6.80L45.86 6.80L45.86 6.80Q45.54 7.21 45.29 7.66L45.29 7.66L45.29 7.66Q45.16 7.88 45.07 8.12L45.07 8.12L45.07 8.12Q44.98 8.36 44.88 8.60L44.88 8.60L44.88 8.60Q44.86 8.68 44.84 8.76L44.84 8.76L44.84 8.76Q44.83 8.85 44.80 8.93L44.80 8.93L44.80 8.93Q44.77 9.06 44.72 9.16L44.72 9.16L44.72 9.16Q44.67 9.27 44.60 9.38L44.60 9.38L44.60 9.38Q44.59 9.39 44.59 9.41L44.59 9.41L44.59 9.41Q44.56 9.44 44.54 9.48L44.54 9.48L44.54 9.48Q44.52 9.52 44.49 9.55L44.49 9.55L44.49 9.55Q44.53 9.66 44.57 9.75L44.57 9.75L44.57 9.75Q44.60 9.84 44.65 9.95L44.65 9.95L44.65 9.95Q44.67 9.98 44.67 9.98L44.67 9.98L44.66 10.00L44.66 10.00Q44.67 10.11 44.56 10.28L44.56 10.28L44.56 10.28Q44.45 10.46 44.30 10.61L44.30 10.61L44.30 10.61Q44.14 10.75 43.99 10.84L43.99 10.84L43.99 10.84Q43.83 10.92 43.75 10.85L43.75 10.85L43.75 10.86L43.75 10.86Q43.75 10.85 43.74 10.85L43.74 10.85L43.74 10.85Q43.74 10.85 43.74 10.84L43.74 10.84L43.74 10.84Q43.67 10.75 43.61 10.66L43.61 10.66L43.61 10.66Q43.55 10.57 43.48 10.47L43.48 10.47L43.48 10.47Q43.43 10.50 43.39 10.50L43.39 10.50L43.39 10.50Q43.23 10.65 43.07 10.74L43.07 10.74L43.07 10.74Q42.91 10.82 42.83 10.75L42.83 10.75L42.83 10.77L42.83 10.77Q42.83 10.75 42.81 10.75L42.81 10.75L42.81 10.75Q42.81 10.75 42.81 10.74L42.81 10.74L42.81 10.74Q42.70 10.63 42.66 10.50L42.66 10.50L42.66 10.50Q42.63 10.37 42.63 10.22L42.63 10.22L42.66 10.19L42.66 10.19Q42.49 9.69 42.27 9.18L42.27 9.18L42.27 9.18Q42.06 8.68 41.82 8.18L41.82 8.18L41.82 8.18Q41.58 7.67 41.34 7.18L41.34 7.18L41.34 7.18Q41.10 6.69 40.91 6.22L40.91 6.22L40.91 6.22Q40.66 5.63 40.42 5.05L40.42 5.05L40.42 5.05Q40.19 4.47 40.00 3.86L40.00 3.86L40.00 3.86Q39.89 3.54 39.81 3.21L39.81 3.21L39.81 3.21Q39.73 2.88 39.62 2.56L39.62 2.56L39.62 2.56Q39.52 2.37 39.43 2.19L39.43 2.19L39.43 2.19Q39.34 2.02 39.33 1.78L39.33 1.78L39.33 1.78Q39.33 1.78 39.31 1.75L39.31 1.75L39.31 1.75Q39.33 1.75 39.33 1.74L39.33 1.74L39.33 1.74Q39.35 1.61 39.45 1.46L39.45 1.46L39.45 1.46Q39.54 1.30 39.67 1.17L39.67 1.17L39.67 1.17Q39.80 1.04 39.96 0.95L39.96 0.95L39.96 0.95Q40.11 0.87 40.24 0.90L40.24 0.90L40.24 0.90Q40.40 1.29 40.50 1.65L40.50 1.65L40.50 1.65Q40.59 1.60 40.63 1.58L40.63 1.58L40.63 1.58Q40.75 1.41 40.94 1.29L40.94 1.29L40.94 1.29Q41.12 1.16 41.29 1.12L41.29 1.12L41.33 1.12L41.33 1.12Q41.40 1.13 41.41 1.20L41.41 1.20ZM41.37 1.19L41.37 1.19L41.37 1.19Q41.36 1.19 41.36 1.20L41.36 1.20L41.37 1.19ZM47.31 1.48L47.32 1.47L47.31 1.48ZM49.25 6.82L49.25 6.82L49.25 6.82Q49.45 6.48 49.71 6.17L49.71 6.17L49.71 6.17Q49.97 5.87 50.27 5.62L50.27 5.62L50.27 5.62Q50.57 5.38 50.90 5.21L50.90 5.21L50.90 5.21Q51.24 5.05 51.58 5.00L51.58 5.00L51.58 5.00Q51.97 4.73 52.41 4.55L52.41 4.55L52.41 4.55Q52.85 4.37 53.16 4.52L53.16 4.52L53.16 4.52Q53.55 4.75 53.77 5.05L53.77 5.05L53.77 5.05Q53.93 5.10 54.05 5.18L54.05 5.18L54.05 5.18Q54.10 5.22 54.14 5.26L54.14 5.26L54.14 5.26Q54.18 5.31 54.22 5.36L54.22 5.36L54.22 5.36Q54.38 5.22 54.50 5.17L54.50 5.17L54.50 5.17Q54.63 5.11 54.66 5.25L54.66 5.25L54.66 5.25Q54.71 5.66 54.73 6.05L54.73 6.05L54.73 6.05Q54.74 6.45 54.73 6.86L54.73 6.86L54.73 6.86Q54.74 6.92 54.75 6.96L54.75 6.96L54.75 6.96Q54.75 7 54.75 7.04L54.75 7.04L54.75 7.04Q54.75 7.31 54.79 7.60L54.79 7.60L54.79 7.60Q54.82 7.90 54.70 8.12L54.70 8.12L54.70 8.12Q54.70 8.19 54.69 8.27L54.69 8.27L54.69 8.27Q54.68 8.34 54.68 8.41L54.68 8.41L54.68 8.41Q54.75 8.95 54.77 9.39L54.77 9.39L54.77 9.39Q54.80 9.53 54.82 9.67L54.82 9.67L54.82 9.67Q54.84 9.80 54.85 9.93L54.85 9.93L54.85 9.93Q54.87 10.01 54.92 10.08L54.92 10.08L54.87 10.14L54.87 10.14Q54.87 10.39 54.81 10.62L54.81 10.62L54.81 10.62Q54.75 10.85 54.59 11.06L54.59 11.06L54.59 11.06Q54.54 11.10 54.45 11.19L54.45 11.19L54.45 11.19Q54.36 11.28 54.26 11.37L54.26 11.37L54.26 11.37Q54.15 11.45 54.05 11.49L54.05 11.49L54.05 11.49Q53.96 11.52 53.89 11.45L53.89 11.45L53.89 11.45Q53.87 11.44 53.87 11.42L53.87 11.42L53.87 11.42Q53.87 11.42 53.86 11.41L53.86 11.41L53.86 11.41Q53.84 11.41 53.83 11.42L53.83 11.42L53.79 11.42L53.79 11.42Q53.69 11.42 53.66 11.40L53.66 11.40L53.66 11.40Q53.59 11.19 53.59 10.91L53.59 10.91L53.59 10.91Q53.59 10.64 53.56 10.44L53.56 10.44L53.56 10.44Q53.54 10.23 53.51 10.02L53.51 10.02L53.51 10.02Q53.49 9.81 53.47 9.59L53.47 9.59L53.47 9.59Q53.10 9.83 52.67 10.00L52.67 10.00L52.67 10.00Q52.23 10.16 51.74 10.30L51.74 10.30L51.74 10.30Q51.66 10.33 51.58 10.35L51.58 10.35L51.58 10.35Q51.51 10.37 51.42 10.40L51.42 10.40L51.42 10.40Q51.21 10.51 50.99 10.61L50.99 10.61L50.99 10.61Q50.78 10.70 50.56 10.74L50.56 10.74L50.56 10.74Q50.34 10.78 50.13 10.75L50.13 10.75L50.13 10.75Q49.92 10.72 49.71 10.57L49.71 10.57L49.71 10.57Q49.34 10.30 49.03 9.93L49.03 9.93L49.03 9.93Q48.72 9.56 48.57 9.13L48.57 9.13L48.57 9.13Q48.51 8.99 48.52 8.82L48.52 8.82L48.52 8.82Q48.54 8.65 48.59 8.47L48.59 8.47L48.59 8.47Q48.51 8.13 48.57 7.92L48.57 7.92L48.57 7.92Q48.65 7.62 48.83 7.34L48.83 7.34L48.83 7.34Q49.01 7.07 49.25 6.82ZM50.78 9.21L50.78 9.21L50.78 9.21Q50.95 9.24 51.27 9.21L51.27 9.21L51.27 9.21Q51.59 9.17 51.97 9.07L51.97 9.07L51.97 9.07Q52.35 8.97 52.72 8.82L52.72 8.82L52.72 8.82Q53.10 8.67 53.37 8.47L53.37 8.47L53.37 8.47Q53.34 8.15 53.32 7.81L53.32 7.81L53.32 7.81Q53.30 7.48 53.27 7.14L53.27 7.14L53.27 7.14Q53.26 7.03 53.26 6.92L53.26 6.92L53.26 6.92Q53.26 6.79 53.24 6.68L53.24 6.68L53.19 6.72L53.19 6.72Q53.17 6.65 53.17 6.57L53.17 6.57L53.17 6.57Q53.17 6.48 53.17 6.41L53.17 6.41L53.17 6.41Q53.14 6.34 53.11 6.28L53.11 6.28L53.11 6.28Q53.07 6.22 53.05 6.15L53.05 6.15L52.92 6.26L52.92 6.26Q52.88 6.19 52.88 6.10L52.88 6.10L52.88 6.10Q52.88 6.01 52.85 5.94L52.85 5.94L52.85 5.94Q52.60 5.85 52.37 5.80L52.37 5.80L52.37 5.80Q52.15 5.75 51.94 5.74L51.94 5.74L51.94 5.74Q51.74 5.74 51.55 5.77L51.55 5.77L51.55 5.77Q51.37 5.80 51.17 5.84L51.17 5.84L51.17 5.84Q50.61 6.06 50.06 6.82L50.06 6.82L50.06 6.82Q49.87 7.06 49.69 7.39L49.69 7.39L49.69 7.39Q49.66 7.81 49.77 8.22L49.77 8.22L49.77 8.22Q49.85 8.34 49.96 8.51L49.96 8.51L49.96 8.51Q50.06 8.68 50.19 8.83L50.19 8.83L50.19 8.83Q50.32 8.97 50.46 9.09L50.46 9.09L50.46 9.09Q50.61 9.20 50.78 9.21ZM58.42 9.07L58.42 9.07L58.42 9.07Q58.74 9.14 59.07 9.13L59.07 9.13L59.07 9.13Q59.40 9.11 59.72 9.07L59.72 9.07L59.72 9.07Q60.44 8.90 61.11 8.51L61.11 8.51L61.11 8.51Q61.15 8.48 61.20 8.45L61.20 8.45L61.20 8.45Q61.25 8.41 61.31 8.39L61.31 8.39L61.31 8.39Q61.36 8.33 61.38 8.31L61.38 8.31L61.38 8.31Q61.39 8.29 61.40 8.27L61.40 8.27L61.40 8.27Q61.42 8.26 61.45 8.23L61.45 8.23L61.45 8.23Q61.47 8.20 61.53 8.15L61.53 8.15L61.53 8.15Q61.57 8.11 61.70 8.00L61.70 8.00L61.70 8.00Q61.84 7.90 61.96 7.83L61.96 7.83L62.02 7.77L62.05 7.80L62.05 7.80Q62.17 7.78 62.13 7.98L62.13 7.98L62.13 7.98Q61.96 8.44 61.62 8.81L61.62 8.81L61.62 8.81Q61.28 9.17 60.82 9.44L60.82 9.44L60.82 9.44Q60.51 9.70 60.16 9.96L60.16 9.96L60.16 9.96Q59.81 10.22 59.46 10.40L59.46 10.40L59.46 10.40Q59.12 10.58 58.81 10.68L58.81 10.68L58.81 10.68Q58.49 10.77 58.24 10.72L58.24 10.72L58.24 10.72Q57.83 10.64 57.48 10.46L57.48 10.46L57.48 10.46Q57.13 10.28 56.81 10.04L56.81 10.04L56.81 10.04Q56.11 9.51 55.73 9.01L55.73 9.01L55.73 9.01Q55.34 8.51 55.28 8.01L55.28 8.01L55.28 8.01Q55.22 7.50 55.47 6.96L55.47 6.96L55.47 6.96Q55.73 6.43 56.34 5.82L56.34 5.82L56.34 5.82Q56.76 5.25 57.36 4.88L57.36 4.88L57.36 4.88Q57.96 4.51 58.84 4.23L58.84 4.23L58.84 4.23Q59.02 4.17 59.26 4.14L59.26 4.14L59.26 4.14Q59.50 4.12 59.75 4.13L59.75 4.13L59.75 4.13Q59.96 4.07 60.23 4.06L60.23 4.06L60.23 4.06Q60.49 4.05 60.75 4.09L60.75 4.09L60.75 4.09Q60.82 3.98 60.96 3.81L60.96 3.81L60.96 3.81Q61.10 3.65 61.23 3.53L61.23 3.53L61.23 3.53Q61.36 3.40 61.48 3.36L61.48 3.36L61.48 3.36Q61.60 3.32 61.63 3.46L61.63 3.46L61.63 3.46Q61.66 3.72 61.64 3.99L61.64 3.99L61.64 3.99Q61.63 4.26 61.57 4.52L61.57 4.52L61.57 4.52Q61.60 4.59 61.63 4.65L61.63 4.65L61.63 4.65Q61.66 4.70 61.67 4.77L61.67 4.77L61.67 4.77Q61.60 5.04 61.40 5.24L61.40 5.24L61.40 5.24Q61.38 5.46 61.33 5.67L61.33 5.67L61.33 5.67Q61.29 5.88 61.19 6.09L61.19 6.09L61.11 6.22L61.11 6.24L61.11 6.24Q61.18 6.36 61.26 6.41L61.26 6.41L61.26 6.41Q61.35 6.47 61.43 6.55L61.43 6.55L61.43 6.55Q61.19 6.78 60.98 6.99L60.98 6.99L60.98 6.99Q60.76 7.20 60.52 7.42L60.52 7.42L60.52 7.42Q60.44 7.34 60.33 7.27L60.33 7.27L60.33 7.27Q60.23 7.21 60.20 7.10L60.20 7.10L60.20 7.10Q60.16 6.99 60.27 6.55L60.27 6.55L60.27 6.55Q60.26 6.41 60.28 6.23L60.28 6.23L60.28 6.23Q60.30 6.05 60.33 5.85L60.33 5.85L60.33 5.85Q60.30 5.77 60.28 5.68L60.28 5.68L60.28 5.68Q60.26 5.60 60.20 5.53L60.20 5.53L60.20 5.53Q60.17 5.50 60.15 5.49L60.15 5.49L60.15 5.49Q60.13 5.47 60.10 5.45L60.10 5.45L60.10 5.45Q59.93 5.38 59.78 5.30L59.78 5.30L59.78 5.30Q59.63 5.22 59.47 5.19L59.47 5.19L59.47 5.19Q59.21 5.14 58.86 5.14L58.86 5.14L58.86 5.14Q58.48 5.33 58.13 5.58L58.13 5.58L58.13 5.58Q57.78 5.82 57.48 6.10L57.48 6.10L57.48 6.10Q56.97 6.57 56.76 6.86L56.76 6.86L56.76 6.86Q56.56 7.15 56.67 7.48L56.67 7.48L56.67 7.48Q56.78 7.62 56.92 7.77L56.92 7.77L56.92 7.77Q57.06 7.92 57.25 8.13L57.25 8.13L57.25 8.13Q57.32 8.22 57.38 8.32L57.38 8.32L57.38 8.32Q57.44 8.41 57.53 8.53L57.53 8.53L57.53 8.53Q57.68 8.68 57.93 8.83L57.93 8.83L57.93 8.83Q58.04 8.92 58.17 8.97L58.17 8.97L58.17 8.97Q58.30 9.03 58.42 9.07ZM63.21 6.82L63.21 6.82L63.21 6.82Q63.41 6.48 63.66 6.17L63.66 6.17L63.66 6.17Q63.92 5.87 64.22 5.62L64.22 5.62L64.22 5.62Q64.53 5.38 64.86 5.21L64.86 5.21L64.86 5.21Q65.20 5.05 65.53 5.00L65.53 5.00L65.53 5.00Q65.93 4.73 66.37 4.55L66.37 4.55L66.37 4.55Q66.81 4.37 67.12 4.52L67.12 4.52L67.12 4.52Q67.51 4.75 67.73 5.05L67.73 5.05L67.73 5.05Q67.89 5.10 68.01 5.18L68.01 5.18L68.01 5.18Q68.05 5.22 68.10 5.26L68.10 5.26L68.10 5.26Q68.14 5.31 68.18 5.36L68.18 5.36L68.18 5.36Q68.33 5.22 68.46 5.17L68.46 5.17L68.46 5.17Q68.59 5.11 68.61 5.25L68.61 5.25L68.61 5.25Q68.67 5.66 68.68 6.05L68.68 6.05L68.68 6.05Q68.70 6.45 68.68 6.86L68.68 6.86L68.68 6.86Q68.70 6.92 68.70 6.96L68.70 6.96L68.70 6.96Q68.71 7 68.71 7.04L68.71 7.04L68.71 7.04Q68.71 7.31 68.75 7.60L68.75 7.60L68.75 7.60Q68.78 7.90 68.66 8.12L68.66 8.12L68.66 8.12Q68.66 8.19 68.65 8.27L68.65 8.27L68.65 8.27Q68.64 8.34 68.64 8.41L68.64 8.41L68.64 8.41Q68.71 8.95 68.73 9.39L68.73 9.39L68.73 9.39Q68.75 9.53 68.77 9.67L68.77 9.67L68.77 9.67Q68.80 9.80 68.81 9.93L68.81 9.93L68.81 9.93Q68.82 10.01 68.88 10.08L68.88 10.08L68.82 10.14L68.82 10.14Q68.82 10.39 68.77 10.62L68.77 10.62L68.77 10.62Q68.71 10.85 68.54 11.06L68.54 11.06L68.54 11.06Q68.50 11.10 68.41 11.19L68.41 11.19L68.41 11.19Q68.32 11.28 68.21 11.37L68.21 11.37L68.21 11.37Q68.11 11.45 68.01 11.49L68.01 11.49L68.01 11.49Q67.91 11.52 67.84 11.45L67.84 11.45L67.84 11.45Q67.83 11.44 67.83 11.42L67.83 11.42L67.83 11.42Q67.83 11.42 67.82 11.41L67.82 11.41L67.82 11.41Q67.80 11.41 67.79 11.42L67.79 11.42L67.75 11.42L67.75 11.42Q67.65 11.42 67.62 11.40L67.62 11.40L67.62 11.40Q67.55 11.19 67.55 10.91L67.55 10.91L67.55 10.91Q67.55 10.64 67.52 10.44L67.52 10.44L67.52 10.44Q67.49 10.23 67.47 10.02L67.47 10.02L67.47 10.02Q67.45 9.81 67.42 9.59L67.42 9.59L67.42 9.59Q67.06 9.83 66.63 10.00L66.63 10.00L66.63 10.00Q66.19 10.16 65.70 10.30L65.70 10.30L65.70 10.30Q65.62 10.33 65.54 10.35L65.54 10.35L65.54 10.35Q65.46 10.37 65.38 10.40L65.38 10.40L65.38 10.40Q65.17 10.51 64.95 10.61L64.95 10.61L64.95 10.61Q64.74 10.70 64.52 10.74L64.52 10.74L64.52 10.74Q64.30 10.78 64.09 10.75L64.09 10.75L64.09 10.75Q63.88 10.72 63.67 10.57L63.67 10.57L63.67 10.57Q63.29 10.30 62.99 9.93L62.99 9.93L62.99 9.93Q62.68 9.56 62.52 9.13L62.52 9.13L62.52 9.13Q62.47 8.99 62.48 8.82L62.48 8.82L62.48 8.82Q62.50 8.65 62.55 8.47L62.55 8.47L62.55 8.47Q62.47 8.13 62.52 7.92L62.52 7.92L62.52 7.92Q62.61 7.62 62.79 7.34L62.79 7.34L62.79 7.34Q62.97 7.07 63.21 6.82ZM64.74 9.21L64.74 9.21L64.74 9.21Q64.90 9.24 65.23 9.21L65.23 9.21L65.23 9.21Q65.55 9.17 65.93 9.07L65.93 9.07L65.93 9.07Q66.30 8.97 66.68 8.82L66.68 8.82L66.68 8.82Q67.06 8.67 67.33 8.47L67.33 8.47L67.33 8.47Q67.30 8.15 67.28 7.81L67.28 7.81L67.28 7.81Q67.26 7.48 67.23 7.14L67.23 7.14L67.23 7.14Q67.21 7.03 67.21 6.92L67.21 6.92L67.21 6.92Q67.21 6.79 67.20 6.68L67.20 6.68L67.14 6.72L67.14 6.72Q67.13 6.65 67.13 6.57L67.13 6.57L67.13 6.57Q67.13 6.48 67.13 6.41L67.13 6.41L67.13 6.41Q67.10 6.34 67.07 6.28L67.07 6.28L67.07 6.28Q67.03 6.22 67.00 6.15L67.00 6.15L66.88 6.26L66.88 6.26Q66.84 6.19 66.84 6.10L66.84 6.10L66.84 6.10Q66.84 6.01 66.81 5.94L66.81 5.94L66.81 5.94Q66.56 5.85 66.33 5.80L66.33 5.80L66.33 5.80Q66.11 5.75 65.90 5.74L65.90 5.74L65.90 5.74Q65.70 5.74 65.51 5.77L65.51 5.77L65.51 5.77Q65.32 5.80 65.13 5.84L65.13 5.84L65.13 5.84Q64.57 6.06 64.02 6.82L64.02 6.82L64.02 6.82Q63.83 7.06 63.64 7.39L63.64 7.39L63.64 7.39Q63.62 7.81 63.73 8.22L63.73 8.22L63.73 8.22Q63.81 8.34 63.92 8.51L63.92 8.51L63.92 8.51Q64.02 8.68 64.15 8.83L64.15 8.83L64.15 8.83Q64.27 8.97 64.42 9.09L64.42 9.09L64.42 9.09Q64.57 9.20 64.74 9.21ZM70.36 5.00L70.29 5.05L70.29 5.08L70.29 5.08Q70.29 5.11 70.30 5.12L70.30 5.12L70.30 5.12Q70.31 5.14 70.31 5.17L70.31 5.17L70.31 5.17Q70.49 5.08 70.62 5.10L70.62 5.10L70.62 5.10Q70.98 5.39 71.25 5.74L71.25 5.74L71.25 5.74Q71.51 6.09 71.72 6.47L71.72 6.47L71.72 6.47Q71.93 6.85 72.12 7.25L72.12 7.25L72.12 7.25Q72.31 7.64 72.49 8.05L72.49 8.05L72.49 8.05Q72.53 8.09 72.56 8.15L72.56 8.15L72.56 8.15Q72.69 8.29 72.81 8.41L72.81 8.41L72.81 8.41Q72.93 8.54 73.04 8.65L73.04 8.65L73.04 8.65Q73.15 8.43 73.27 8.22L73.27 8.22L73.27 8.22Q73.39 8.01 73.51 7.81L73.51 7.81L73.51 7.81Q73.64 7.53 73.78 7.27L73.78 7.27L73.78 7.27Q73.92 7.01 74.07 6.76L74.07 6.76L74.07 6.76Q74.23 6.40 74.41 6.05L74.41 6.05L74.41 6.05Q74.49 5.88 74.67 5.68L74.67 5.68L74.67 5.68Q74.84 5.49 75.00 5.33L75.00 5.33L75.25 5.00L75.25 5.00Q75.28 4.97 75.41 4.83L75.41 4.83L75.41 4.83Q75.54 4.69 75.69 4.58L75.69 4.58L75.69 4.58Q75.84 4.48 75.94 4.47L75.94 4.47L75.94 4.47Q76.03 4.45 75.98 4.68L75.98 4.68L75.98 4.68Q75.75 5.18 75.49 5.66L75.49 5.66L75.49 5.66Q75.22 6.13 75.01 6.64L75.01 6.64L75.01 6.64Q74.69 7.38 74.42 8.13L74.42 8.13L74.42 8.13Q74.14 8.88 73.86 9.63L73.86 9.63L73.86 9.63Q73.89 9.72 73.92 9.83L73.92 9.83L73.93 9.83L73.92 9.84L73.92 9.84Q73.92 9.94 73.91 10.00L73.91 10.00L73.91 10.00Q73.79 10.19 73.61 10.40L73.61 10.40L73.61 10.40Q73.58 10.47 73.56 10.56L73.56 10.56L73.56 10.56Q73.49 10.71 73.44 10.84L73.44 10.84L73.44 10.84Q73.39 10.96 73.33 11.07L73.33 11.07L73.33 11.07Q73.26 11.26 73.21 11.40L73.21 11.40L73.21 11.40Q73.15 11.54 73.09 11.67L73.09 11.67L73.09 11.67Q73.04 11.80 72.97 11.97L72.97 11.97L72.97 11.97Q72.91 12.14 72.81 12.38L72.81 12.38L72.81 12.38Q72.70 12.67 72.64 12.97L72.64 12.97L72.64 12.97Q72.58 13.27 72.38 13.55L72.38 13.55L72.38 13.55Q72.35 13.58 72.22 13.73L72.22 13.73L72.22 13.73Q72.09 13.87 71.93 14L71.93 14L71.93 14Q71.78 14.13 71.67 14.16L71.67 14.16L71.67 14.16Q71.55 14.20 71.57 14.01L71.57 14.01L71.57 14.01Q71.57 13.99 71.57 13.97L71.57 13.97L71.57 13.97Q71.58 13.96 71.58 13.94L71.58 13.94L71.58 13.94Q71.44 14.01 71.30 14.01L71.30 14.01L71.30 14.01Q71.26 13.99 71.26 13.89L71.26 13.89L71.26 13.89Q71.32 13.57 71.43 13.26L71.43 13.26L71.43 13.26Q71.54 12.95 71.69 12.66L71.69 12.66L71.69 12.66Q71.69 12.46 71.76 12.18L71.76 12.18L71.76 12.18Q71.83 11.90 71.92 11.62L71.92 11.62L71.92 11.62Q72.00 11.34 72.09 11.10L72.09 11.10L72.09 11.10Q72.18 10.85 72.24 10.72L72.24 10.72L72.28 10.60L72.28 10.60Q72.17 10.49 71.99 10.23L71.99 10.23L71.99 10.23Q71.82 9.98 71.62 9.66L71.62 9.66L71.62 9.66Q71.41 9.34 71.20 8.99L71.20 8.99L71.20 8.99Q70.99 8.64 70.81 8.32L70.81 8.32L70.81 8.32Q70.70 8.16 70.59 8.02L70.59 8.02L70.59 8.02Q70.49 7.87 70.39 7.71L70.39 7.71L70.39 7.71Q69.97 7.27 69.66 6.80L69.66 6.80L69.66 6.80Q69.34 6.34 69.23 5.87L69.23 5.87L69.23 5.87Q69.23 5.85 69.22 5.84L69.22 5.84L69.22 5.84Q69.22 5.84 69.22 5.82L69.22 5.82L69.23 5.81L69.23 5.81Q69.26 5.64 69.41 5.42L69.41 5.42L69.41 5.42Q69.57 5.21 69.76 5.08L69.76 5.08L69.76 5.08Q69.87 4.94 70.03 4.84L70.03 4.84L70.03 4.84Q70.18 4.73 70.34 4.76L70.34 4.76L70.34 4.76Q70.36 4.83 70.36 4.89L70.36 4.89L70.36 4.89Q70.36 4.93 70.36 5.00L70.36 5.00Z"></path></g><!----><g data-v-423bf9ae="" id="c7d76236-0252-4fe4-b0d8-3447d379fae3" transform="matrix(1.3388906717300415,0,0,1.3388906717300415,-24.01148223876953,-21.551088333129883)" stroke="none" fill="#fff"><path d="M77.3 54.3h-7.1v-2.8c0-1.9-1.5-3.4-3.4-3.4H54.9c-1.9 0-3.4 1.5-3.4 3.4v2.8H44c-2.6 0-4.8 2.2-4.8 4.8v19.3c0 2.6 2.2 4.8 4.8 4.8h33.3c2.6 0 4.8-2.2 4.8-4.8V59.1c0-2.7-2.2-4.8-4.8-4.8zM53 51.5c0-1.1.9-2 2-2h11.8c1.1 0 2 .9 2 2v2.8h-1v-1.7c0-1.2-1-2.2-2.2-2.2h-9.2c-1.2 0-2.2 1-2.2 2.2v1.7H53v-2.8zm13.3 2.8H55.5v-1.7c0-.4.4-.8.8-.8h9.2c.4 0 .8.4.8.8v1.7zm14.3 24.1c0 1.9-1.5 3.4-3.4 3.4H44c-1.9 0-3.4-1.5-3.4-3.4V59.1c0-1.9 1.5-3.4 3.4-3.4H77.3c1.9 0 3.4 1.5 3.4 3.4v19.3zM46.9 57.2v22.4c0 .4-.3.7-.7.7s-.7-.3-.7-.7V57.2c0-.4.3-.7.7-.7s.7.3.7.7zm28.5 0v22.4c0 .4-.3.7-.7.7-.4 0-.7-.3-.7-.7V57.2c0-.4.3-.7.7-.7.4 0 .7.3.7.7zm-4.6 2.4h-9.3c-.4 0-.7.3-.7.7v4.9c0 .4.3.7.7.7h9.3c.4 0 .7-.3.7-.7v-4.9c0-.4-.3-.7-.7-.7zm-.7 4.8h-2.4l.8-.7c.3-.3.3-.7 0-1-.3-.3-.7-.3-1 0l-1.7 1.7H65l1.5-1.5c.3-.3.3-.7 0-1-.3-.3-.7-.3-1 0L63 64.4h-.6V61h7.9v3.4zm.7 2.3H67c-.4 0-.7.3-.7.7v3.7c0 .4.3.7.7.7h3.8c.4 0 .7-.3.7-.7v-3.7c0-.3-.3-.7-.7-.7zm-.7 3.7h-2.4v-2.3h2.4v2.3zM64 66.7h-2.5c-.4 0-.7.3-.7.7v2.4c0 .4.3.7.7.7H64c.4 0 .7-.3.7-.7v-2.4c0-.3-.3-.7-.7-.7zm-.7 2.5h-1.1v-1h1.1v1zm7.5 3.2h-2.5c-.4 0-.7.3-.7.7v2.4c0 .4.3.7.7.7h2.5c.4 0 .7-.3.7-.7v-2.4c0-.4-.3-.7-.7-.7zm-.7 2.4H69v-1h1.1v1zm-34 4.7H22.3c-1.6 0-3-1.3-3-3v-26c0-1.6 1.3-3 3-3h18.4c1.6 0 3 1.2 3 2.8v1.4c0 .4.3.7.7.7.4 0 .7-.3.7-.7v-1.4c0-2.3-2-4.2-4.4-4.2H38V29.6c0-1.2-1-2.2-2.2-2.2h-8.9c-1.2 0-2.2 1-2.2 2.2v16.6h-2.3c-2.4 0-4.4 2-4.4 4.4v26c0 2.2 1.7 4 3.8 4.3.1 1.5 1.4 2.7 2.9 2.7s2.8-1.2 2.9-2.7h8.6c.4 0 .7-.3.7-.7 0-.3-.4-.7-.8-.7zm-1.5-46.8v13.5H28V32.7h6.6zm1.5 13.5V32.7h.4v13.5h-.4zm-9.3-17.4h8.9c.4 0 .7.4.7.8v1.6H26.1v-1.6c0-.5.3-.8.7-.8zm-.7 3.9h.4v13.5h-.4V32.7zm-1.5 49.5c-.7 0-1.3-.5-1.4-1.2h2.9c-.1.7-.7 1.2-1.5 1.2zm13.3-28.5c0 .4-.3.7-.7.7H23.6c-.4 0-.7-.3-.7-.7 0-.4.3-.7.7-.7h13.6c.4 0 .7.3.7.7zM23.6 75c-.4 0-.7-.3-.7-.7 0-.4.3-.7.7-.7h12.1c.4 0 .7.3.7.7 0 .4-.3.7-.7.7H23.6zm21.3-31.7c0-.4.3-.7.7-.7h4.5c6.8 0 13.2-3 17.5-8.3.3-.3.7-.4 1-.1.3.3.4.7.1 1-4.5 5.6-11.3 8.8-18.5 8.8h-4.5c-.4 0-.8-.3-.8-.7zm33.9-18.9c.9 2 1.8 3.9 2.7 5.8.4.8.3 1.6-.2 2.5-.2.3-.4.4-.7.5h-.1c-.2 0-.5-.1-.7-.3l-.2-.2c-.7-.9-1.4-1.7-2-2.6-.6-.8-1.2-1.5-1.8-2.3-.2-.3-.2-.8.1-1 .3-.2.8-.2 1 .1.6.8 1.2 1.6 1.8 2.3.5.7 1.1 1.4 1.7 2.2 0-.2 0-.4-.1-.5-.9-1.9-1.8-3.8-2.7-5.8-.2-.4 0-.8.4-1 .2-.2.7 0 .8.3zm-13.9-1.1c-.2-.3-.2-.7-.1-1 .1-.5.6-1.2 2.2-1.2 1.7.1 5 0 6.6 0h.6c.5-.7 1.9-2.5 2.3-3 .8-1.1 2.3-2.2 3.5-1.5 1 .6 1 1.8 0 3.6-.5.9-5.8 8.4-7.1 10.2 0 .1.1.4.2.7.1.4.3 1 .3 1.2.1.4.3 1.3-.3 1.9-.2.2-.5.4-.9.4-.2 0-.5-.1-.7-.2l-2.3-2.1c-.3-.3-.3-.7 0-1 .3-.3.7-.3 1 0l1.9 1.7v-.2c-.1-.2-.2-.7-.3-1.2-.2-.6-.2-.8-.2-.9 0-.2-.1-.6.2-.9 1.7-2.3 6.7-9.4 7.1-10.2.7-1.2.6-1.6.5-1.7-.2-.1-1 .3-1.6 1.1-.5.7-2.6 3.3-2.6 3.3-.2.2-.4.3-.7.3H67c-.2 0-.4 0-.5.1 1.3.3 4.6 1.2 6.5 1.7.4.1.6.5.5.9-.1.4-.5.6-.9.5-2.2-.6-6.5-1.7-6.9-1.8-.3-.2-.6-.4-.8-.7z"></path></g><!----></svg>